# xmcd
#
# Track frame offsets:
#	150
#	6290
#	27074
#	46877
#	79809
#	91513
#	103729
#	121036
#	142956
#	178240
#	208611
#	228683
#	235416
#
# Disc length: 3699 seconds
#
# Revision: 0
# Processed by: cddbd v1.5.2PL0 Copyright (c) Steve Scherf et al.
# Submitted via: audiograbber 1.83.01
#
DISCID=a00e710d
DTITLE=Young, Neil - Heart of Gold Live 10CD07
DYEAR=1986
DGENRE=POP-ROCK-JAZZ
TTITLE0=Introduction
TTITLE1=Mr. Soul
TTITLE2=When you dance, I can really love
TTITLE3=Down by the river
TTITLE4=Too lonely
TTITLE5=Neil's mom calls
TTITLE6=Heart of gold
TTITLE7=After the goldrush
TTITLE8=Inca queen
TTITLE9=Drive back
TTITLE10=Opera star
TTITLE11=Sam Kinison calls
TTITLE12=Cortez the killer
EXTD=
EXTT0=
EXTT1=
EXTT2=
EXTT3=
EXTT4=
EXTT5=
EXTT6=
EXTT7=
EXTT8=
EXTT9=
EXTT10=
EXTT11=
EXTT12=
PLAYORDER=
